<svg width="40" height="39" viewBox="0 0 40 39" fill="none" xmlns="http://www.w3.org/2000/svg">
<path d="M15.0312 0C12.2846 0 10.0375 2.19375 10.0375 4.875V9.75H0.499376C0.19975 9.75 0.0499376 9.945 0.0499376 10.1887V21.9375C0.0499376 23.3025 1.14856 24.375 2.54682 24.375H37.5031C38.9014 24.375 40 23.3025 40 21.9375V10.1887C40 9.89625 39.8003 9.75 39.5506 9.75H30.0125V4.875C30.0125 2.19375 27.7653 0 25.0187 0H15.0312V0ZM15.0312 4.875H25.0187V9.75H15.0312V4.875ZM0.0499376 28.8112V38.5612C0.0499376 38.805 0.249688 39 0.499376 39H39.5006C39.7503 39 39.9501 38.805 39.9501 38.5612V28.8112C39.1511 29.1037 38.3521 29.25 37.4532 29.25H2.49688C1.598 29.25 0.799001 29.055 0 28.8112H0.0499376Z" fill="#393744"/>
</svg>
